<mxfile host="app.diagrams.net" modified="2024-04-28T15:31:21.885Z" agent="Mozilla/5.0 (Windows NT 10.0; Win64; x64; rv:125.0) Gecko/20100101 Firefox/125.0" etag="au09HehGFvIHTNtKjD93" version="24.3.0" type="device">
  <diagram name="Seite-1" id="nAB1i9_eOI-YU51k6ATl">
    <mxGraphModel dx="997" dy="561" grid="1" gridSize="10" guides="1" tooltips="1" connect="1" arrows="1" fold="1" page="1" pageScale="1" pageWidth="827" pageHeight="1169" math="0" shadow="0">
      <root>
        <mxCell id="0" />
        <mxCell id="1" parent="0" />
        <mxCell id="Q4rcOKiovh70nN0iNu9r-2" value="" style="rounded=0;whiteSpace=wrap;html=1;strokeColor=none;" vertex="1" parent="1">
          <mxGeometry x="30" y="30" width="790" height="440" as="geometry" />
        </mxCell>
        <mxCell id="c6FZxGQIQtyl0CG7oN6R-2" value="Anforderungen" style="rounded=0;whiteSpace=wrap;html=1;shadow=1;" parent="1" vertex="1">
          <mxGeometry x="200" y="40" width="160" height="40" as="geometry" />
        </mxCell>
        <mxCell id="c6FZxGQIQtyl0CG7oN6R-13" value="" style="rounded=0;orthogonalLoop=1;jettySize=auto;html=1;endArrow=none;endFill=0;" parent="1" source="c6FZxGQIQtyl0CG7oN6R-4" target="c6FZxGQIQtyl0CG7oN6R-12" edge="1">
          <mxGeometry relative="1" as="geometry" />
        </mxCell>
        <mxCell id="c6FZxGQIQtyl0CG7oN6R-3" value="Funktionale Anforderungen" style="rounded=0;whiteSpace=wrap;html=1;shadow=1;" parent="1" vertex="1">
          <mxGeometry x="80" y="140" width="160" height="40" as="geometry" />
        </mxCell>
        <mxCell id="c6FZxGQIQtyl0CG7oN6R-4" value="Nichtfunktionale Anforderungen" style="rounded=0;whiteSpace=wrap;html=1;shadow=1;" parent="1" vertex="1">
          <mxGeometry x="320" y="140" width="160" height="40" as="geometry" />
        </mxCell>
        <mxCell id="c6FZxGQIQtyl0CG7oN6R-6" value="Randbedingungen" style="rounded=0;whiteSpace=wrap;html=1;shadow=1;" parent="1" vertex="1">
          <mxGeometry x="590" y="240" width="160" height="30" as="geometry" />
        </mxCell>
        <mxCell id="c6FZxGQIQtyl0CG7oN6R-7" value="" style="endArrow=none;html=1;rounded=0;" parent="1" source="c6FZxGQIQtyl0CG7oN6R-6" target="c6FZxGQIQtyl0CG7oN6R-4" edge="1">
          <mxGeometry width="50" height="50" relative="1" as="geometry">
            <mxPoint x="390" y="410" as="sourcePoint" />
            <mxPoint x="440" y="360" as="targetPoint" />
          </mxGeometry>
        </mxCell>
        <mxCell id="c6FZxGQIQtyl0CG7oN6R-9" value="" style="endArrow=none;html=1;rounded=0;exitX=0.5;exitY=0;exitDx=0;exitDy=0;" parent="1" source="c6FZxGQIQtyl0CG7oN6R-3" target="c6FZxGQIQtyl0CG7oN6R-2" edge="1">
          <mxGeometry width="50" height="50" relative="1" as="geometry">
            <mxPoint x="390" y="410" as="sourcePoint" />
            <mxPoint x="440" y="360" as="targetPoint" />
          </mxGeometry>
        </mxCell>
        <mxCell id="c6FZxGQIQtyl0CG7oN6R-11" value="" style="endArrow=none;html=1;rounded=0;exitX=0.5;exitY=0;exitDx=0;exitDy=0;" parent="1" source="c6FZxGQIQtyl0CG7oN6R-4" target="c6FZxGQIQtyl0CG7oN6R-2" edge="1">
          <mxGeometry width="50" height="50" relative="1" as="geometry">
            <mxPoint x="390" y="410" as="sourcePoint" />
            <mxPoint x="440" y="360" as="targetPoint" />
          </mxGeometry>
        </mxCell>
        <mxCell id="c6FZxGQIQtyl0CG7oN6R-12" value="Qualitätsanforderungen" style="whiteSpace=wrap;html=1;rounded=0;shadow=1;" parent="1" vertex="1">
          <mxGeometry x="240" y="240" width="160" height="30" as="geometry" />
        </mxCell>
        <mxCell id="c6FZxGQIQtyl0CG7oN6R-14" value="Performanz" style="whiteSpace=wrap;html=1;rounded=0;shadow=1;" parent="1" vertex="1">
          <mxGeometry x="40" y="330" width="70" height="30" as="geometry" />
        </mxCell>
        <mxCell id="c6FZxGQIQtyl0CG7oN6R-15" value="Sicherheit" style="whiteSpace=wrap;html=1;rounded=0;shadow=1;" parent="1" vertex="1">
          <mxGeometry x="120" y="330" width="60" height="30" as="geometry" />
        </mxCell>
        <mxCell id="c6FZxGQIQtyl0CG7oN6R-16" value="Zuverlässigkeit" style="whiteSpace=wrap;html=1;rounded=0;shadow=1;" parent="1" vertex="1">
          <mxGeometry x="190" y="330" width="90" height="30" as="geometry" />
        </mxCell>
        <mxCell id="c6FZxGQIQtyl0CG7oN6R-17" value="Benutzbarkeit" style="whiteSpace=wrap;html=1;rounded=0;shadow=1;" parent="1" vertex="1">
          <mxGeometry x="290" y="330" width="80" height="30" as="geometry" />
        </mxCell>
        <mxCell id="c6FZxGQIQtyl0CG7oN6R-18" value="Wartbarkeit" style="whiteSpace=wrap;html=1;rounded=0;shadow=1;" parent="1" vertex="1">
          <mxGeometry x="380" y="330" width="70" height="30" as="geometry" />
        </mxCell>
        <mxCell id="c6FZxGQIQtyl0CG7oN6R-19" value="Portierbarkeit" style="whiteSpace=wrap;html=1;rounded=0;shadow=1;" parent="1" vertex="1">
          <mxGeometry x="550" y="330" width="80" height="30" as="geometry" />
        </mxCell>
        <mxCell id="c6FZxGQIQtyl0CG7oN6R-21" value="" style="endArrow=none;html=1;rounded=0;exitX=0.5;exitY=0;exitDx=0;exitDy=0;" parent="1" source="c6FZxGQIQtyl0CG7oN6R-14" target="c6FZxGQIQtyl0CG7oN6R-12" edge="1">
          <mxGeometry width="50" height="50" relative="1" as="geometry">
            <mxPoint x="420" y="270" as="sourcePoint" />
            <mxPoint x="470" y="220" as="targetPoint" />
          </mxGeometry>
        </mxCell>
        <mxCell id="c6FZxGQIQtyl0CG7oN6R-23" value="" style="endArrow=none;html=1;rounded=0;exitX=0.5;exitY=0;exitDx=0;exitDy=0;" parent="1" source="c6FZxGQIQtyl0CG7oN6R-15" target="c6FZxGQIQtyl0CG7oN6R-12" edge="1">
          <mxGeometry width="50" height="50" relative="1" as="geometry">
            <mxPoint x="420" y="270" as="sourcePoint" />
            <mxPoint x="470" y="220" as="targetPoint" />
          </mxGeometry>
        </mxCell>
        <mxCell id="c6FZxGQIQtyl0CG7oN6R-24" value="" style="endArrow=none;html=1;rounded=0;exitX=0.5;exitY=0;exitDx=0;exitDy=0;" parent="1" source="c6FZxGQIQtyl0CG7oN6R-16" target="c6FZxGQIQtyl0CG7oN6R-12" edge="1">
          <mxGeometry width="50" height="50" relative="1" as="geometry">
            <mxPoint x="420" y="270" as="sourcePoint" />
            <mxPoint x="470" y="220" as="targetPoint" />
          </mxGeometry>
        </mxCell>
        <mxCell id="c6FZxGQIQtyl0CG7oN6R-25" value="" style="endArrow=none;html=1;rounded=0;exitX=0.5;exitY=0;exitDx=0;exitDy=0;" parent="1" source="c6FZxGQIQtyl0CG7oN6R-17" target="c6FZxGQIQtyl0CG7oN6R-12" edge="1">
          <mxGeometry width="50" height="50" relative="1" as="geometry">
            <mxPoint x="420" y="270" as="sourcePoint" />
            <mxPoint x="470" y="220" as="targetPoint" />
          </mxGeometry>
        </mxCell>
        <mxCell id="c6FZxGQIQtyl0CG7oN6R-26" value="" style="endArrow=none;html=1;rounded=0;entryX=0.5;entryY=0;entryDx=0;entryDy=0;" parent="1" source="c6FZxGQIQtyl0CG7oN6R-12" target="c6FZxGQIQtyl0CG7oN6R-18" edge="1">
          <mxGeometry width="50" height="50" relative="1" as="geometry">
            <mxPoint x="420" y="270" as="sourcePoint" />
            <mxPoint x="470" y="220" as="targetPoint" />
          </mxGeometry>
        </mxCell>
        <mxCell id="c6FZxGQIQtyl0CG7oN6R-27" value="" style="endArrow=none;html=1;rounded=0;entryX=0.5;entryY=0;entryDx=0;entryDy=0;" parent="1" source="c6FZxGQIQtyl0CG7oN6R-12" target="c6FZxGQIQtyl0CG7oN6R-19" edge="1">
          <mxGeometry width="50" height="50" relative="1" as="geometry">
            <mxPoint x="420" y="270" as="sourcePoint" />
            <mxPoint x="470" y="220" as="targetPoint" />
          </mxGeometry>
        </mxCell>
        <mxCell id="c6FZxGQIQtyl0CG7oN6R-28" value="Projektbezogene Randbedingungen" style="rounded=0;whiteSpace=wrap;html=1;shadow=1;" parent="1" vertex="1">
          <mxGeometry x="690" y="420" width="120" height="40" as="geometry" />
        </mxCell>
        <mxCell id="c6FZxGQIQtyl0CG7oN6R-29" value="Produktbezogene Randbedingungen" style="rounded=0;whiteSpace=wrap;html=1;shadow=1;" parent="1" vertex="1">
          <mxGeometry x="560" y="420" width="120" height="40" as="geometry" />
        </mxCell>
        <mxCell id="c6FZxGQIQtyl0CG7oN6R-30" value="" style="endArrow=none;html=1;rounded=0;exitX=0.5;exitY=0;exitDx=0;exitDy=0;" parent="1" source="c6FZxGQIQtyl0CG7oN6R-29" target="c6FZxGQIQtyl0CG7oN6R-6" edge="1">
          <mxGeometry width="50" height="50" relative="1" as="geometry">
            <mxPoint x="420" y="310" as="sourcePoint" />
            <mxPoint x="470" y="260" as="targetPoint" />
          </mxGeometry>
        </mxCell>
        <mxCell id="c6FZxGQIQtyl0CG7oN6R-31" value="" style="endArrow=none;html=1;rounded=0;exitX=0.5;exitY=0;exitDx=0;exitDy=0;" parent="1" source="c6FZxGQIQtyl0CG7oN6R-28" target="c6FZxGQIQtyl0CG7oN6R-6" edge="1">
          <mxGeometry width="50" height="50" relative="1" as="geometry">
            <mxPoint x="420" y="310" as="sourcePoint" />
            <mxPoint x="470" y="260" as="targetPoint" />
          </mxGeometry>
        </mxCell>
        <mxCell id="c6FZxGQIQtyl0CG7oN6R-34" value="&lt;u&gt;Anforderungen zu&lt;/u&gt;" style="rounded=0;whiteSpace=wrap;html=1;strokeColor=none;" parent="1" vertex="1">
          <mxGeometry x="260" y="290" width="120" height="20" as="geometry" />
        </mxCell>
        <mxCell id="D6MgGN0bMYFrQs6ahMyv-1" value="Kompatibilität" style="whiteSpace=wrap;html=1;rounded=0;shadow=1;" parent="1" vertex="1">
          <mxGeometry x="460" y="330" width="80" height="30" as="geometry" />
        </mxCell>
        <mxCell id="D6MgGN0bMYFrQs6ahMyv-3" value="" style="endArrow=none;html=1;rounded=0;" parent="1" source="c6FZxGQIQtyl0CG7oN6R-12" target="D6MgGN0bMYFrQs6ahMyv-1" edge="1">
          <mxGeometry width="50" height="50" relative="1" as="geometry">
            <mxPoint x="384" y="280" as="sourcePoint" />
            <mxPoint x="600" y="340" as="targetPoint" />
          </mxGeometry>
        </mxCell>
      </root>
    </mxGraphModel>
  </diagram>
</mxfile>
